<svg width="21" height="22" viewBox="0 0 21 22" fill="none" xmlns="http://www.w3.org/2000/svg">
<path d="M18.9436 12.1319L1.44627 12.4373C0.756375 12.4493 0.18669 11.8992 0.174648 11.2093C0.162605 10.5194 0.712744 9.9497 1.40264 9.93766L18.9 9.63224C19.5899 9.6202 20.1596 10.1703 20.1716 10.8602C20.1836 11.5501 19.6335 12.1198 18.9436 12.1319Z" fill="#1475A2"/>
<path d="M10.3479 21.0332C9.65798 21.0453 9.0883 20.4951 9.07626 19.8053L8.77084 2.30792C8.7588 1.61802 9.30894 1.04833 9.99883 1.03629C10.6887 1.02425 11.2584 1.57439 11.2705 2.26428L11.5759 19.7616C11.5879 20.4515 11.0378 21.0212 10.3479 21.0332Z" fill="#1475A2"/>
</svg>
